<mxfile host="app.diagrams.net" modified="2022-07-21T12:33:58.304Z" agent="5.0 (Macintosh; Intel Mac OS X 10_15_7) AppleWebKit/537.36 (KHTML, like Gecko) Chrome/98.0.4758.102 Safari/537.36" etag="QQ7W2okCtbBugUeKDK3M" version="20.0.4" type="github">
  <diagram name="Page-1" id="e7e014a7-5840-1c2e-5031-d8a46d1fe8dd">
    <mxGraphModel dx="1426" dy="794" grid="1" gridSize="10" guides="1" tooltips="1" connect="1" arrows="1" fold="1" page="1" pageScale="1" pageWidth="1169" pageHeight="826" background="none" math="0" shadow="0">
      <root>
        <mxCell id="0" />
        <mxCell id="1" parent="0" />
        <mxCell id="f3yNtYn1xceM6Wy2Fp8a-92" value="" style="rounded=0;whiteSpace=wrap;html=1;fillColor=none;" vertex="1" parent="1">
          <mxGeometry x="550" y="40" width="220" height="620" as="geometry" />
        </mxCell>
        <mxCell id="f3yNtYn1xceM6Wy2Fp8a-124" value="" style="rounded=0;whiteSpace=wrap;html=1;fillColor=none;" vertex="1" parent="1">
          <mxGeometry x="367" y="40" width="183" height="620" as="geometry" />
        </mxCell>
        <mxCell id="f3yNtYn1xceM6Wy2Fp8a-75" value="" style="rounded=0;whiteSpace=wrap;html=1;fillColor=none;" vertex="1" parent="1">
          <mxGeometry x="80" y="40" width="287" height="620" as="geometry" />
        </mxCell>
        <mxCell id="f3yNtYn1xceM6Wy2Fp8a-77" value="基础选项" style="rounded=0;whiteSpace=wrap;html=1;" vertex="1" parent="1">
          <mxGeometry x="220" y="99" width="120" height="21" as="geometry" />
        </mxCell>
        <mxCell id="f3yNtYn1xceM6Wy2Fp8a-78" value="复杂组件" style="rounded=0;whiteSpace=wrap;html=1;" vertex="1" parent="1">
          <mxGeometry x="220" y="129" width="120" height="50" as="geometry" />
        </mxCell>
        <mxCell id="f3yNtYn1xceM6Wy2Fp8a-80" value="UI" style="text;html=1;align=center;verticalAlign=middle;resizable=0;points=[];autosize=1;strokeColor=none;fillColor=none;" vertex="1" parent="1">
          <mxGeometry x="217" y="40" width="30" height="20" as="geometry" />
        </mxCell>
        <mxCell id="f3yNtYn1xceM6Wy2Fp8a-81" value="data" style="text;html=1;align=center;verticalAlign=middle;resizable=0;points=[];autosize=1;strokeColor=none;fillColor=none;" vertex="1" parent="1">
          <mxGeometry x="367" y="40" width="40" height="20" as="geometry" />
        </mxCell>
        <mxCell id="f3yNtYn1xceM6Wy2Fp8a-93" value="server" style="text;html=1;align=center;verticalAlign=middle;resizable=0;points=[];autosize=1;strokeColor=none;fillColor=none;" vertex="1" parent="1">
          <mxGeometry x="550" y="40" width="50" height="20" as="geometry" />
        </mxCell>
        <mxCell id="f3yNtYn1xceM6Wy2Fp8a-100" value="表单构成" style="swimlane;strokeColor=default;fillColor=default;" vertex="1" parent="1">
          <mxGeometry x="197" y="61" width="160" height="319" as="geometry" />
        </mxCell>
        <mxCell id="f3yNtYn1xceM6Wy2Fp8a-114" value="...." style="rounded=0;whiteSpace=wrap;html=1;" vertex="1" parent="f3yNtYn1xceM6Wy2Fp8a-100">
          <mxGeometry x="23" y="219" width="120" height="50" as="geometry" />
        </mxCell>
        <mxCell id="f3yNtYn1xceM6Wy2Fp8a-110" value="基础选项" style="rounded=0;whiteSpace=wrap;html=1;" vertex="1" parent="1">
          <mxGeometry x="220" y="193" width="120" height="21" as="geometry" />
        </mxCell>
        <mxCell id="f3yNtYn1xceM6Wy2Fp8a-111" value="复杂组件" style="rounded=0;whiteSpace=wrap;html=1;" vertex="1" parent="1">
          <mxGeometry x="220" y="223" width="120" height="50" as="geometry" />
        </mxCell>
        <mxCell id="f3yNtYn1xceM6Wy2Fp8a-115" value="&lt;span data-shimo-docs=&quot;[[20,&amp;quot;particularControl&amp;quot;]]&quot;&gt;&lt;p style=&quot;line-height: 1.7;margin-bottom: 0pt;margin-top: 0pt;font-size: 11pt;color: #494949;&quot;&gt;&lt;span class=&quot;ql-author-298895&quot;&gt;particularControlData&lt;/span&gt;&lt;/p&gt;&lt;/span&gt;" style="rounded=0;whiteSpace=wrap;html=1;" vertex="1" parent="1">
          <mxGeometry x="600" y="320" width="140" height="60" as="geometry" />
        </mxCell>
        <mxCell id="f3yNtYn1xceM6Wy2Fp8a-116" value="" style="endArrow=classic;html=1;rounded=0;exitX=0.5;exitY=1;exitDx=0;exitDy=0;" edge="1" parent="1" source="f3yNtYn1xceM6Wy2Fp8a-115">
          <mxGeometry width="50" height="50" relative="1" as="geometry">
            <mxPoint x="800" y="380" as="sourcePoint" />
            <mxPoint x="270" y="380" as="targetPoint" />
            <Array as="points">
              <mxPoint x="670" y="420" />
              <mxPoint x="270" y="420" />
            </Array>
          </mxGeometry>
        </mxCell>
        <mxCell id="f3yNtYn1xceM6Wy2Fp8a-117" value="" style="shape=flexArrow;endArrow=classic;html=1;rounded=0;entryX=0;entryY=0.5;entryDx=0;entryDy=0;fillColor=#f5f5f5;strokeColor=#666666;" edge="1" parent="1" target="f3yNtYn1xceM6Wy2Fp8a-118">
          <mxGeometry width="50" height="50" relative="1" as="geometry">
            <mxPoint x="360" y="240" as="sourcePoint" />
            <mxPoint x="410" y="190" as="targetPoint" />
          </mxGeometry>
        </mxCell>
        <mxCell id="f3yNtYn1xceM6Wy2Fp8a-118" value="contextData" style="rounded=0;whiteSpace=wrap;html=1;" vertex="1" parent="1">
          <mxGeometry x="420" y="200" width="78" height="80" as="geometry" />
        </mxCell>
        <mxCell id="f3yNtYn1xceM6Wy2Fp8a-119" value="onChange" style="text;html=1;strokeColor=none;fillColor=none;align=center;verticalAlign=middle;whiteSpace=wrap;rounded=0;" vertex="1" parent="1">
          <mxGeometry x="357" y="205.5" width="60" height="30" as="geometry" />
        </mxCell>
        <mxCell id="f3yNtYn1xceM6Wy2Fp8a-121" value="确定" style="rounded=0;whiteSpace=wrap;html=1;" vertex="1" parent="1">
          <mxGeometry x="197" y="450" width="120" height="60" as="geometry" />
        </mxCell>
        <mxCell id="f3yNtYn1xceM6Wy2Fp8a-127" value="" style="endArrow=classic;html=1;rounded=0;exitX=0.5;exitY=1;exitDx=0;exitDy=0;entryX=1;entryY=0.5;entryDx=0;entryDy=0;" edge="1" parent="1" source="f3yNtYn1xceM6Wy2Fp8a-118" target="f3yNtYn1xceM6Wy2Fp8a-121">
          <mxGeometry width="50" height="50" relative="1" as="geometry">
            <mxPoint x="430" y="350" as="sourcePoint" />
            <mxPoint x="480" y="300" as="targetPoint" />
            <Array as="points">
              <mxPoint x="460" y="390" />
              <mxPoint x="340" y="390" />
              <mxPoint x="340" y="480" />
            </Array>
          </mxGeometry>
        </mxCell>
        <mxCell id="f3yNtYn1xceM6Wy2Fp8a-128" value="" style="endArrow=classic;html=1;rounded=0;exitX=0;exitY=0.5;exitDx=0;exitDy=0;entryX=0.5;entryY=1;entryDx=0;entryDy=0;" edge="1" parent="1" source="f3yNtYn1xceM6Wy2Fp8a-121" target="f3yNtYn1xceM6Wy2Fp8a-115">
          <mxGeometry width="50" height="50" relative="1" as="geometry">
            <mxPoint x="190" y="550" as="sourcePoint" />
            <mxPoint x="240" y="500" as="targetPoint" />
            <Array as="points">
              <mxPoint x="100" y="480" />
              <mxPoint x="100" y="550" />
              <mxPoint x="390" y="550" />
              <mxPoint x="670" y="550" />
            </Array>
          </mxGeometry>
        </mxCell>
        <mxCell id="f3yNtYn1xceM6Wy2Fp8a-130" value="校验通过？" style="rhombus;whiteSpace=wrap;html=1;" vertex="1" parent="1">
          <mxGeometry x="420" y="508" width="80" height="80" as="geometry" />
        </mxCell>
        <mxCell id="f3yNtYn1xceM6Wy2Fp8a-132" value="Y" style="text;html=1;strokeColor=none;fillColor=none;align=center;verticalAlign=middle;whiteSpace=wrap;rounded=0;" vertex="1" parent="1">
          <mxGeometry x="555" y="524" width="60" height="30" as="geometry" />
        </mxCell>
        <mxCell id="f3yNtYn1xceM6Wy2Fp8a-133" value="" style="endArrow=classic;html=1;rounded=0;entryX=0;entryY=0.5;entryDx=0;entryDy=0;" edge="1" parent="1" target="f3yNtYn1xceM6Wy2Fp8a-100">
          <mxGeometry width="50" height="50" relative="1" as="geometry">
            <mxPoint x="460" y="590" as="sourcePoint" />
            <mxPoint x="560" y="650" as="targetPoint" />
            <Array as="points">
              <mxPoint x="460" y="610" />
              <mxPoint x="140" y="610" />
              <mxPoint x="140" y="220" />
            </Array>
          </mxGeometry>
        </mxCell>
      </root>
    </mxGraphModel>
  </diagram>
</mxfile>
